<?xml version="1.0" standalone="no"?>
<!DOCTYPE svg PUBLIC "-//W3C//DTD SVG 20010904//EN"
 "http://www.w3.org/TR/2001/REC-SVG-20010904/DTD/svg10.dtd">
<svg version="1.0" xmlns="http://www.w3.org/2000/svg"
 width="1024.000000pt" height="1024.000000pt" viewBox="0 0 1024.000000 1024.000000"
 preserveAspectRatio="xMidYMid meet">
<metadata>
Created by potrace 1.14, written by Peter Selinger 2001-2017
</metadata>
<g transform="translate(0.000000,1024.000000) scale(0.100000,-0.100000)"
fill="#000000" stroke="none">
<path d="M0 10230 c0 -5 5 -10 10 -10 6 0 10 -13 10 -30 0 -16 -4 -30 -10 -30
-6 0 -10 -1760 -10 -5080 l0 -5080 5120 0 5120 0 0 5120 0 5120 -4480 0 -4480
0 0 -25 c0 -22 4 -25 40 -25 29 0 40 4 40 15 0 11 11 15 40 15 30 0 40 -4 40
-16 0 -14 32 -16 320 -13 299 4 320 3 320 -13 0 -17 -30 -18 -480 -18 l-480 0
0 -25 c0 -25 1 -25 80 -25 l80 0 0 -55 0 -55 -160 0 -160 0 0 -80 0 -80 -40 0
-40 0 0 -40 0 -40 -40 0 -40 0 0 80 0 80 -40 0 c-38 0 -40 2 -40 30 0 28 -2
30 -40 30 -22 0 -40 5 -40 10 0 6 -33 10 -80 10 -64 0 -80 -3 -80 -15 0 -11
-11 -15 -40 -15 -29 0 -40 -4 -40 -15 0 -11 -11 -15 -40 -15 -22 0 -40 -4 -40
-10 0 -5 -18 -10 -40 -10 l-40 0 0 40 c0 40 0 40 -39 40 -39 0 -39 0 -42 43
-2 23 -3 52 -1 65 l3 22 240 0 c206 0 239 2 239 15 0 13 24 15 160 15 100 0
160 4 160 10 0 6 -60 10 -160 10 -100 0 -160 -4 -160 -10 0 -5 -18 -10 -40
-10 -36 0 -40 3 -40 25 0 23 -4 25 -40 25 -36 0 -40 -2 -40 -25 l0 -25 -154 0
c-93 0 -157 -4 -161 -10 -9 -15 -74 -12 -91 4 -8 8 -14 26 -14 40 0 24 3 26
50 26 28 0 50 5 50 10 0 6 -33 10 -80 10 -47 0 -80 -4 -80 -10z m2320 -60 c0
-5 -18 -10 -40 -10 -22 0 -40 5 -40 10 0 6 18 10 40 10 22 0 40 -4 40 -10z
m-2210 -170 c0 -64 -3 -80 -15 -80 -12 0 -15 16 -15 80 0 64 3 80 15 80 12 0
15 -16 15 -80z m-80 -200 c0 -22 -4 -40 -10 -40 -5 0 -10 18 -10 40 0 22 5 40
10 40 6 0 10 -18 10 -40z m90 0 c0 -59 -21 -55 -35 8 -6 28 -4 32 14 32 18 0
21 -6 21 -40z m40 -80 c0 -29 -4 -40 -15 -40 -11 0 -15 11 -15 40 0 29 4 40
15 40 11 0 15 -11 15 -40z m640 -50 c0 -5 -18 -10 -40 -10 -22 0 -40 5 -40 10
0 6 18 10 40 10 22 0 40 -4 40 -10z m-633 -782 c-3 -7 -5 -2 -5 12 0 14 2 19
5 13 2 -7 2 -19 0 -25z m5173 -848 c400 -33 699 -114 1035 -282 494 -247 914
-634 1194 -1100 114 -191 252 -510 309 -718 156 -560 129 -1209 -73 -1770 -60
-167 -234 -499 -331 -630 l-44 -60 -225 0 -225 0 0 817 0 818 128 -128 c168
-168 150 -168 330 4 75 72 140 140 144 150 14 35 -11 68 -144 196 -73 71 -200
194 -283 274 -82 80 -245 237 -362 348 l-211 203 -8 75 c-5 55 -1 593 5 611 1
1 7 2 15 2 8 0 24 12 35 26 18 23 21 41 21 130 0 94 -2 104 -20 114 -14 8
-121 10 -331 8 -262 -3 -311 -5 -319 -18 -5 -8 -10 -59 -10 -113 0 -89 2 -100
23 -121 13 -13 29 -25 36 -27 8 -3 11 -28 9 -87 l-3 -83 -87 86 c-54 53 -92
84 -99 79 -8 -4 -9 -3 -5 4 4 7 -11 28 -35 49 -23 21 -73 69 -111 106 -40 41
-73 65 -80 61 -6 -4 -8 -3 -5 3 3 5 -64 77 -150 159 -146 140 -187 175 -168
144 5 -9 4 -11 -4 -6 -6 4 -8 12 -5 18 8 12 -60 84 -98 104 -15 8 -37 14 -50
13 -18 -1 -16 -3 10 -10 17 -5 32 -11 32 -12 0 -2 -18 -3 -39 -2 -23 0 -37 4
-34 10 3 6 -13 -8 -35 -30 -22 -22 -37 -44 -34 -49 3 -5 0 -6 -5 -3 -13 8 -46
-27 -36 -38 5 -4 2 -5 -5 -1 -15 9 -54 -26 -50 -45 2 -6 -4 -14 -12 -16 -13
-4 -13 -3 0 6 8 6 10 11 5 11 -16 0 -80 -74 -77 -89 2 -7 -1 -10 -8 -6 -6 4
-33 -17 -63 -47 -29 -30 -43 -43 -32 -29 14 18 8 15 -18 -9 -21 -19 -35 -40
-33 -46 3 -7 -4 -20 -15 -30 -18 -16 -19 -16 -13 -1 3 9 11 17 17 17 6 0 7 3
4 7 -9 9 -48 -27 -41 -39 3 -4 0 -7 -8 -6 -7 2 -12 -3 -10 -10 1 -8 -1 -11 -6
-8 -13 8 -73 -61 -75 -84 -1 -10 -5 -16 -9 -14 -5 3 -5 10 -2 16 4 7 2 8 -5 4
-6 -4 -9 -11 -6 -16 3 -4 -3 -14 -12 -21 -14 -12 -16 -12 -8 1 4 8 -4 4 -18
-9 -15 -13 -24 -28 -21 -33 3 -5 0 -7 -8 -6 -7 2 -13 -4 -13 -12 0 -8 6 -14
13 -12 8 1 11 -2 7 -8 -5 -8 -14 -5 -27 7 -20 18 -21 17 -14 -7 3 -14 3 -19 0
-12 -8 18 -24 15 -24 -5 0 -9 -3 -14 -6 -10 -9 9 -36 -21 -29 -33 3 -6 0 -7
-9 -4 -11 4 -19 -2 -26 -20 -5 -14 -12 -26 -15 -26 -4 0 -3 6 1 13 4 6 -5 1
-19 -12 -15 -13 -24 -27 -22 -32 3 -4 0 -11 -6 -15 -8 -5 -9 -3 -4 7 8 12 6
12 -8 0 -9 -7 -14 -18 -10 -24 3 -5 1 -7 -4 -4 -13 8 -36 -17 -25 -27 4 -4 3
-7 -3 -6 -22 5 -29 -1 -15 -11 13 -9 13 -10 0 -6 -19 5 -176 -142 -173 -163 2
-10 1 -11 -3 -2 -5 10 -10 10 -25 -4 -10 -9 -16 -21 -13 -26 3 -4 0 -7 -8 -6
-7 2 -12 -3 -10 -9 1 -7 -5 -13 -13 -13 -9 0 -18 -8 -22 -17 -11 -32 -44 -62
-61 -56 -12 5 -14 2 -9 -11 4 -10 3 -15 -3 -11 -6 3 -10 1 -10 -5 0 -6 -4 -8
-10 -5 -13 8 -13 -8 0 -21 7 -7 6 -11 -4 -11 -8 0 -13 4 -10 9 3 4 1 8 -3 8
-12 0 -169 -159 -165 -168 1 -4 -2 -7 -6 -7 -17 0 -152 -130 -148 -142 3 -7 0
-15 -6 -19 -7 -4 -8 -3 -4 4 19 32 -17 4 -83 -62 -48 -49 -71 -78 -66 -87 5
-7 4 -10 -3 -5 -9 5 -50 -26 -138 -108 -116 -107 -282 -281 -277 -289 3 -6 1
-7 -5 -3 -10 6 -35 -14 -168 -140 -45 -42 -52 -76 -24 -111 37 -47 139 -135
150 -128 5 3 7 0 5 -7 -3 -8 18 -39 48 -71 46 -50 58 -57 90 -57 34 0 48 10
159 119 68 66 126 123 131 127 4 4 7 -360 7 -809 l0 -817 -230 0 -229 0 -82
123 c-147 222 -296 557 -368 828 -42 158 -67 312 -87 534 -15 164 -15 212 -5
350 29 375 119 748 252 1043 11 23 17 48 13 54 -4 6 -3 8 3 5 10 -6 70 109 65
125 -1 4 2 8 6 8 13 0 44 59 37 70 -4 6 -1 9 7 8 7 -2 12 5 12 14 -1 10 3 15
9 11 6 -4 8 0 4 10 -4 10 -2 16 6 14 7 -1 11 6 11 15 -1 10 1 16 5 13 11 -6
43 54 35 67 -4 6 -3 8 4 4 12 -7 54 47 50 65 -2 7 2 13 8 14 18 0 66 64 58 76
-4 8 -3 9 4 5 13 -8 59 50 54 68 -2 6 0 8 4 4 10 -10 37 29 29 42 -4 6 -3 9 2
8 5 -2 59 48 120 110 77 79 110 119 106 130 -4 14 -3 14 5 3 9 -12 12 -12 24
0 8 8 38 34 66 58 28 25 48 49 45 54 -3 6 -1 7 4 4 6 -4 22 3 36 16 14 12 46
37 71 56 25 18 44 37 41 41 -3 5 0 12 6 16 8 5 9 3 4 -6 -5 -8 -3 -11 6 -8 8
3 13 10 12 16 -2 6 3 9 10 7 6 -3 23 5 37 16 17 15 19 19 7 15 -11 -4 -16 -2
-12 5 4 6 13 8 21 5 16 -6 86 38 76 48 -3 4 2 4 12 0 15 -6 17 -4 11 7 -4 8
-5 11 -1 7 4 -3 80 31 169 77 89 46 208 102 264 125 112 44 317 110 346 110
11 0 15 4 11 12 -4 7 -3 8 4 4 6 -4 75 5 154 19 78 14 157 25 175 25 18 0 33
3 33 8 0 12 327 14 470 2z m-260 -924 c0 -2 -8 -10 -17 -17 -16 -13 -17 -12
-4 4 13 16 21 21 21 13z m170 -28 c15 -21 17 -28 6 -19 -16 13 -41 51 -33 51
2 0 14 -15 27 -32z m245 -238 c10 -11 16 -20 13 -20 -3 0 -13 9 -23 20 -10 11
-16 20 -13 20 3 0 13 -9 23 -20z m92 -77 c0 -9 -4 -10 -14 -2 -7 6 -13 12 -13
14 0 1 6 2 13 2 8 0 14 -6 14 -14z m-2797 -17 c0 -2 -8 -10 -17 -17 -16 -13
-17 -12 -4 4 13 16 21 21 21 13z m2860 -51 c13 -14 21 -25 18 -25 -2 0 -15 11
-28 25 -13 14 -21 25 -18 25 2 0 15 -11 28 -25z m-560 -784 c0 -188 18 -171
-178 -171 -97 0 -134 3 -137 13 -3 6 2 37 11 67 8 30 16 63 17 72 1 9 3 15 5
14 6 -6 97 96 94 106 -1 5 2 7 8 3 5 -3 10 -1 10 4 0 6 3 10 8 10 4 -1 13 -1
21 0 11 1 11 4 0 18 -13 15 -12 15 6 4 16 -10 28 -9 60 3 78 29 75 35 75 -143z
m253 122 c97 -44 187 -170 187 -263 l0 -30 -160 0 -160 0 0 166 0 166 38 -7
c20 -3 63 -18 95 -32z m-473 -47 c0 -2 -8 -10 -17 -17 -16 -13 -17 -12 -4 4
13 16 21 21 21 13z m-955 -385 c-3 -6 -11 -11 -16 -11 -5 0 -4 6 3 14 14 16
24 13 13 -3z m1510 9 l113 0 -9 -41 c-14 -60 -54 -132 -96 -174 -37 -36 -132
-87 -184 -99 -23 -5 -27 -2 -33 25 -9 44 -8 284 2 293 4 4 27 5 51 2 24 -3 94
-6 156 -6z m-335 -161 l0 -161 -35 6 c-101 19 -197 93 -244 188 -17 34 -31 69
-31 79 0 10 -7 25 -16 33 -14 15 0 16 155 16 l171 0 0 -161z m-1493 -302 c-2
-23 -3 -1 -3 48 0 50 1 68 3 42 2 -26 2 -67 0 -90z m378 -282 l0 -170 -120 0
-120 0 -3 173 -2 173 122 -3 123 -3 0 -170z m381 20 c0 -82 -3 -160 -8 -173
-8 -22 -11 -23 -125 -20 l-118 3 -3 173 -2 173 127 -3 128 -3 1 -150z m1839
-20 l0 -170 -120 0 -120 0 -3 160 c-1 87 0 165 3 172 3 11 32 13 122 11 l118
-3 0 -170z m370 0 l0 -170 -120 0 -120 0 -3 160 c-1 87 0 165 3 172 3 11 32
13 122 11 l118 -3 0 -170z m-2968 -17 c-2 -35 -3 -7 -3 62 0 69 1 97 3 63 2
-35 2 -91 0 -125z m383 -467 c0 -145 -2 -170 -16 -175 -20 -8 -198 -8 -218 0
-14 5 -16 30 -16 175 l0 169 125 0 125 0 0 -169z m371 147 c2 -13 2 -90 -1
-173 l-5 -150 -100 -3 c-158 -5 -145 -20 -145 172 0 89 3 166 7 169 3 4 59 7
124 7 113 0 117 -1 120 -22z m1849 -147 c0 -145 -2 -170 -16 -175 -30 -11
-209 -7 -222 6 -13 13 -18 319 -5 331 3 4 60 7 125 7 l118 0 0 -169z m365 -6
l0 -170 -109 -3 c-71 -2 -113 1 -122 9 -11 9 -14 46 -14 169 0 86 3 160 7 164
4 3 59 5 122 4 l116 -3 0 -170z m-1010 -498 l0 -579 -403 -1 -402 -2 0 583 0
582 403 -2 402 -3 0 -578z m206 -836 c22 -23 29 -39 29 -70 0 -49 -14 -82 -43
-102 -33 -21 -1130 -27 -1180 -6 -69 29 -85 126 -30 181 l26 26 584 0 585 0
29 -29z"/>
<path d="M3904 6328 l-19 -23 23 19 c21 18 27 26 19 26 -2 0 -12 -10 -23 -22z"/>
<path d="M5091 3973 c-58 -29 -79 -117 -40 -167 49 -62 122 -69 179 -16 37 35
46 71 29 117 -26 68 -103 99 -168 66z"/>
<path d="M960 10231 c0 -10 97 -21 181 -21 46 0 59 3 59 15 0 13 -20 15 -120
15 -66 0 -120 -4 -120 -9z"/>
<path d="M998 10193 c23 -2 61 -2 85 0 23 2 4 4 -43 4 -47 0 -66 -2 -42 -4z"/>
<path d="M640 10025 c0 -22 4 -25 40 -25 36 0 40 3 40 25 0 23 -4 25 -40 25
-36 0 -40 -2 -40 -25z"/>
</g>
</svg>
